<?xml version="1.0" standalone="no"?>
<!DOCTYPE svg PUBLIC "-//W3C//DTD SVG 20010904//EN"
 "http://www.w3.org/TR/2001/REC-SVG-20010904/DTD/svg10.dtd">
<svg version="1.0" xmlns="http://www.w3.org/2000/svg"
 width="700.000000pt" height="700.000000pt" viewBox="0 0 700.000000 700.000000"
 preserveAspectRatio="xMidYMid meet">
<metadata>
Created by potrace 1.14, written by Peter Selinger 2001-2017
</metadata>
<g transform="translate(0.000000,700.000000) scale(0.100000,-0.100000)"
fill="#000000" stroke="none">
<path d="M4352 6081 c-6 -4 -18 -37 -26 -74 -7 -38 -16 -71 -19 -74 -3 -3 -36
-12 -74 -19 -37 -8 -70 -20 -74 -26 -16 -25 11 -46 76 -58 72 -14 79 -20 90
-90 10 -62 22 -82 48 -78 19 3 24 14 37 78 l16 74 74 16 c64 13 75 18 78 37 4
26 -16 38 -78 48 -70 11 -76 18 -90 90 -12 65 -33 92 -58 76z m25 -217 c-9 -9
-28 6 -21 18 4 6 10 6 17 -1 6 -6 8 -13 4 -17z"/>
<path d="M5695 5651 c-3 -6 -1 -26 5 -45 70 -212 -9 -438 -193 -557 -112 -72
-228 -95 -384 -75 -58 7 -63 6 -63 -11 0 -33 62 -126 125 -187 109 -107 248
-159 405 -152 181 9 335 95 433 244 57 87 77 148 84 252 10 153 -43 288 -156
401 -84 84 -236 161 -256 130z m123 -82 c115 -66 206 -188 235 -316 85 -370
-296 -689 -663 -556 -65 24 -139 73 -190 127 -40 41 -69 81 -70 96 0 3 41 4
91 4 106 -2 168 12 264 61 119 60 212 167 259 297 21 57 24 82 22 175 -1 59
-6 116 -10 126 -11 24 1 21 62 -14z"/>
<path d="M2790 5568 c-14 -7 -31 -27 -38 -43 -8 -17 -28 -37 -45 -45 -70 -33
-72 -118 -4 -155 21 -11 41 -32 46 -47 12 -35 60 -60 101 -52 30 7 70 49 70
76 0 8 10 14 23 15 28 3 64 48 65 82 0 34 -32 77 -63 85 -15 4 -27 16 -31 30
-12 51 -77 78 -124 54z"/>
<path d="M766 5195 c-18 -19 -30 -64 -61 -217 -21 -106 -41 -197 -46 -202 -6
-7 -55 -20 -124 -31 -11 -2 -45 -9 -75 -15 -30 -6 -66 -13 -80 -16 -140 -25
-174 -46 -172 -103 2 -66 25 -82 152 -107 41 -8 84 -16 95 -18 11 -2 62 -12
112 -22 65 -12 94 -22 97 -33 3 -9 21 -97 41 -196 20 -99 43 -190 51 -203 19
-29 60 -45 93 -37 22 6 60 38 62 54 0 3 2 13 4 21 2 8 6 29 10 45 3 17 10 50
15 75 5 25 12 56 14 70 10 54 36 173 41 180 2 4 24 11 47 15 24 4 50 9 58 11
26 5 85 17 90 19 3 0 28 5 55 10 28 4 55 9 60 11 6 1 26 5 45 8 78 14 116 71
88 130 -20 42 -31 45 -262 91 -98 19 -180 36 -182 37 -1 2 -21 93 -43 203 -36
175 -44 203 -66 223 -36 31 -89 30 -119 -3z m112 -579 c19 -11 22 -15 10 -16
-10 0 -27 -14 -40 -30 l-22 -31 -13 25 c-7 14 -22 27 -33 31 -19 6 -18 8 10
32 17 13 30 32 30 41 1 11 6 8 16 -10 8 -15 27 -34 42 -42z"/>
<path d="M3265 4789 c-175 -17 -232 -25 -365 -50 -487 -93 -972 -310 -1365
-611 -212 -163 -428 -376 -590 -584 -182 -233 -327 -476 -438 -739 -77 -180
-153 -415 -181 -555 -23 -116 -35 -181 -40 -212 -14 -91 -16 -105 -21 -148 -5
-53 -15 -215 -19 -314 -3 -78 19 -135 67 -170 39 -28 126 -28 164 0 52 39 64
73 68 196 7 193 14 259 45 444 81 478 298 954 616 1349 302 377 752 712 1189
885 179 71 422 145 545 165 19 3 58 10 85 15 28 5 77 12 110 16 33 4 69 9 80
11 11 3 128 7 260 9 268 3 448 -13 680 -62 382 -80 807 -273 1127 -512 151
-113 220 -172 348 -301 136 -137 187 -197 328 -386 4 -5 35 -53 68 -105 223
-351 358 -697 428 -1105 13 -74 18 -109 31 -222 3 -22 7 -102 10 -177 5 -151
14 -180 67 -218 43 -30 125 -31 165 -1 54 39 67 77 66 182 -3 251 -38 508
-103 761 -187 728 -647 1396 -1266 1838 -253 180 -553 336 -829 430 -180 61
-400 117 -541 137 -22 3 -50 8 -64 10 -14 2 -52 7 -85 11 -33 3 -73 8 -90 11
-50 8 -475 10 -550 2z"/>
<path d="M3309 4206 c-2 -2 -31 -6 -64 -9 -181 -18 -429 -71 -600 -130 -656
-226 -1216 -716 -1525 -1335 -87 -175 -177 -412 -196 -519 -3 -15 -7 -30 -10
-35 -3 -4 -7 -18 -9 -30 -3 -13 -9 -45 -15 -73 -15 -75 -17 -84 -29 -165 -25
-169 -34 -378 -19 -423 21 -62 82 -107 145 -107 42 0 104 40 124 80 13 26 19
69 23 165 4 72 8 141 10 155 3 14 7 48 11 75 13 112 56 299 95 416 205 608
633 1104 1199 1388 274 138 538 213 866 246 65 7 325 7 390 1 258 -26 470 -76
695 -165 105 -42 321 -151 351 -177 8 -8 18 -14 22 -14 3 0 26 -14 49 -30 24
-17 54 -38 68 -47 140 -93 345 -286 475 -448 332 -412 508 -888 530 -1433 4
-112 17 -148 68 -185 40 -30 121 -30 165 1 52 37 65 73 63 176 -2 247 -47 518
-123 756 -250 784 -854 1417 -1624 1703 -109 41 -307 99 -379 111 -16 3 -55
10 -85 16 -30 6 -77 13 -105 16 -27 3 -61 8 -75 11 -29 6 -485 15 -491 9z"/>
<path d="M6175 4115 c-14 -13 -25 -31 -25 -39 0 -9 -15 -22 -34 -30 -52 -22
-72 -78 -46 -127 11 -20 63 -51 74 -44 3 3 4 2 1 -1 -7 -11 24 -63 44 -74 53
-28 131 9 131 61 0 12 3 20 6 16 10 -9 62 21 74 42 26 49 6 105 -46 127 -19 8
-34 21 -34 30 0 8 -11 26 -25 39 -33 34 -87 34 -120 0z"/>
<path d="M3310 3600 c-30 -4 -73 -10 -95 -13 -59 -8 -193 -37 -221 -47 -13 -5
-24 -8 -24 -5 0 12 -251 -84 -365 -139 -503 -245 -891 -690 -1064 -1217 -32
-99 -66 -233 -76 -309 -4 -24 -8 -47 -10 -50 -6 -10 -18 -186 -18 -262 0 -69
3 -82 28 -114 51 -67 138 -81 205 -34 47 34 61 70 65 178 5 125 16 211 36 302
6 25 13 56 15 70 12 61 79 244 126 340 144 298 374 557 653 735 155 98 406
204 550 230 11 2 41 9 66 14 100 21 163 26 359 25 182 0 219 -3 331 -27 144
-30 297 -81 419 -139 86 -42 269 -152 305 -185 11 -10 38 -31 60 -48 22 -16
81 -71 131 -121 317 -315 505 -747 519 -1189 3 -105 20 -153 64 -184 82 -59
197 -22 228 74 12 37 5 245 -11 330 -2 11 -7 40 -11 65 -3 25 -18 90 -31 145
-176 719 -738 1303 -1449 1503 -106 30 -187 48 -265 58 -25 3 -56 8 -70 11
-41 8 -391 10 -450 3z"/>
<path d="M4284 3053 c-15 -21 -31 -40 -34 -43 -3 -3 -39 -49 -79 -103 -41 -53
-77 -99 -80 -102 -4 -2 -4 19 -1 47 l7 51 -145 -149 c-79 -82 -189 -195 -244
-251 l-100 -101 -408 0 c-450 0 -452 -1 -505 -64 -37 -44 -45 -89 -42 -253 l2
-150 50 0 c28 -1 55 1 61 3 8 2 11 47 11 141 0 133 0 140 27 185 15 26 30 46
32 43 3 -2 5 -78 5 -167 l-1 -162 -32 -52 -32 -51 -1 -225 c-1 -249 3 -270 56
-289 40 -14 83 7 96 46 5 15 8 111 7 213 l-1 185 36 63 36 64 6 -74 c6 -70 25
-122 128 -353 5 -11 20 -45 34 -76 19 -43 32 -59 54 -66 41 -15 87 6 101 45 9
26 2 50 -69 218 -43 104 -79 194 -79 201 0 6 14 36 32 67 l32 56 200 -2 200
-3 0 -271 c1 -286 2 -290 48 -315 26 -14 79 4 97 33 11 17 14 78 13 282 0 235
1 264 18 302 57 124 252 509 262 515 6 4 25 3 42 -2 47 -12 86 -20 136 -26 38
-4 49 -1 73 21 28 26 35 63 17 96 -6 11 -51 47 -100 81 -50 33 -90 65 -90 69
0 5 35 88 79 184 43 97 78 176 76 176 -1 0 -15 -17 -31 -37z m-184 -372 c0
-26 -17 -36 -35 -21 -18 15 -8 40 16 40 12 0 19 -7 19 -19z"/>
</g>
</svg>
